<svg id="Flat" xmlns="http://www.w3.org/2000/svg" viewBox="0 0 512 512"><path d="M144,392s7-80.431,8-102c2.3-49.653,40.294-90,90-90h28c49.706,0,87.7,40.347,90,90,1,21.569,8,102,8,102l16,96c-27.975,0-79.428-31.192-107.836-49.945a36.6,36.6,0,0,0-40.328,0C207.428,456.808,155.975,488,128,488Z" style="fill:#a3d4f7"/><circle cx="280" cy="224" r="24" style="fill:#8fbad9"/><circle cx="232" cy="224" r="24" style="fill:#8fbad9"/><path d="M224,296h64a0,0,0,0,1,0,0v80a16,16,0,0,1-16,16H240a16,16,0,0,1-16-16V296A0,0,0,0,1,224,296Z" style="fill:#2978b8"/><path d="M208,320h16a16,16,0,0,1,16,16v8a24,24,0,0,1-24,24h0a24,24,0,0,1-24-24v-8A16,16,0,0,1,208,320Z" transform="translate(-128 560) rotate(-90)" style="fill:#f0c6a4"/><path d="M296,320h0a24,24,0,0,1,24,24v8a16,16,0,0,1-16,16H288a16,16,0,0,1-16-16v-8A24,24,0,0,1,296,320Z" transform="translate(-48 640) rotate(-90)" style="fill:#f0c6a4"/><path d="M272,264v-8a16,16,0,0,0-32,0v8a16,16,0,0,0-16,16v16h64V280A16,16,0,0,0,272,264Z" style="fill:#fbe9d8"/><path d="M192,384a8,8,0,0,1-8-8V312a8,8,0,0,1,16,0v64A8,8,0,0,1,192,384Z" style="fill:#8fbad9"/><path d="M320,384a8,8,0,0,1-8-8V312a8,8,0,0,1,16,0v64A8,8,0,0,1,320,384Z" style="fill:#8fbad9"/><ellipse cx="256" cy="208" rx="32" ry="24" style="fill:#f0c6a4"/><circle cx="152" cy="136" r="24" style="fill:#f0c6a4"/><circle cx="360" cy="136" r="24" style="fill:#f0c6a4"/><path d="M352,136c0,53.019-42.981,80-96,80s-96-26.981-96-80S192,24,256,24,352,82.981,352,136Z" style="fill:#f7cca9"/><path d="M314.79,45.72C306.92,51.98,288,68.99,288,88c0,0-24,0-24-16,0,0-24,0-24,32,0,0-40-8-40-56V43.35C214.64,31.41,233.31,24,256,24,280.16,24,299.75,32.4,314.79,45.72Z" style="fill:#f2c837"/><circle cx="216" cy="136" r="8" style="fill:#d49073"/><circle cx="296" cy="136" r="8" style="fill:#d49073"/><path d="M384,488h0c-14.27,0-26.185-10.375-27.477-23.926l-4.453-54.607C351.176,400.087,358.921,392,368.8,392h30.4c9.878,0,17.623,8.087,16.729,17.467l-4.453,54.607C410.185,477.625,398.27,488,384,488Z" style="fill:#8fbad9"/><path d="M128,488h0c-14.27,0-26.185-10.375-27.477-23.926L96.07,409.467C95.176,400.087,102.921,392,112.8,392h30.4c9.878,0,17.623,8.087,16.729,17.467l-4.453,54.607C154.185,477.625,142.27,488,128,488Z" style="fill:#8fbad9"/><path d="M256,184c-18.772,0-28.6-9.285-29.657-10.344a8,8,0,0,1,11.314-11.313c.056.057,6.2,5.657,18.343,5.657s18.286-5.6,18.343-5.657a8,8,0,0,1,11.314,11.313C284.6,174.715,274.772,184,256,184Z" style="fill:#d49073"/><rect x="240" y="296" width="32" height="80" style="fill:#2d85cc"/></svg>