<svg id="Flat" xmlns="http://www.w3.org/2000/svg" viewBox="0 0 512 512"><path d="M240,232h32a96,96,0,0,1,96,96V440a0,0,0,0,1,0,0H144a0,0,0,0,1,0,0V328A96,96,0,0,1,240,232Z" style="fill:#d1a6f7"/><rect x="248" y="280" width="16" height="160" style="fill:#c082d9"/><path d="M359.63,288.75C327.46,354.5,256,332.44,256,332.44s-71.46,22.06-103.63-43.69A96,96,0,0,1,240,232h32A96,96,0,0,1,359.63,288.75Z" style="fill:#ad6643"/><rect x="224" y="224" width="64" height="56" style="fill:#f0c6a4"/><rect x="176" y="440" width="160" height="48" style="fill:#ad6643"/><circle cx="352" cy="72" r="40" style="fill:#c3c6c7"/><path d="M360,136c0-61.856-48-112-104-112S152,74.144,152,136v24H360Z" style="fill:#d0d2d4"/><path d="M224.77,232s-6.708,48,31.23,48a26.574,26.574,0,0,1-24.926,16C186.489,296,174.441,232,224.77,232Z" style="fill:#c082d9"/><path d="M287.23,232s6.708,48-31.23,48a26.574,26.574,0,0,0,24.926,16C325.511,296,337.559,232,287.23,232Z" style="fill:#c082d9"/><path d="M344,136H320v24h0a24,24,0,1,0,24-24Z" style="fill:#f0c6a4"/><path d="M192,160V136H168a24,24,0,1,0,24,24Z" style="fill:#f0c6a4"/><path d="M176,136s56-8,80-64h0c24,56,80,64,80,64v32a80,80,0,0,1-80,80h0a80,80,0,0,1-80-80Z" style="fill:#f7cca9"/><path d="M304,376H288a8,8,0,0,1,0-16h16a8,8,0,0,1,0,16Z" style="fill:#c082d9"/><rect x="336" y="368" width="32" height="120" style="fill:#f0c6a4"/><path d="M208,288a32,32,0,0,0-32-32H128a16,16,0,0,0-16,16h0a16,16,0,0,0,16,16h16V488h32V288Z" style="fill:#8c5237"/><path d="M144,408h16a16,16,0,0,1,16,16v32a0,0,0,0,1,0,0H128a0,0,0,0,1,0,0V424A16,16,0,0,1,144,408Z" transform="translate(-280 584) rotate(-90)" style="fill:#f0c6a4"/><path d="M256,216c-18.772,0-28.6-9.285-29.657-10.343a8,8,0,0,1,11.314-11.314c.057.057,6.2,5.657,18.343,5.657s18.287-5.6,18.343-5.656a8,8,0,1,1,11.314,11.313C284.6,206.716,274.772,216,256,216Z" style="fill:#d49073"/><path d="M216,200a40,40,0,1,1,40-40A40.045,40.045,0,0,1,216,200Zm0-64a24,24,0,1,0,24,24A24.027,24.027,0,0,0,216,136Z" style="fill:#fbe9d8"/><path d="M296,200a40,40,0,1,1,40-40A40.045,40.045,0,0,1,296,200Zm0-64a24,24,0,1,0,24,24A24.027,24.027,0,0,0,296,136Z" style="fill:#fbe9d8"/><path d="M232,160a8,8,0,0,0-8-8H208a8,8,0,0,0,0,16h16A8,8,0,0,0,232,160Z" style="fill:#d49073"/><path d="M304,152H288a8,8,0,0,0,0,16h16a8,8,0,0,0,0-16Z" style="fill:#d49073"/></svg>