<svg id="Flat" xmlns="http://www.w3.org/2000/svg" viewBox="0 0 512 512"><rect x="320" y="392" width="48" height="96" transform="translate(688 880) rotate(180)" style="fill:#f0c6a4"/><rect x="144" y="392" width="48" height="96" style="fill:#f0c6a4"/><path d="M368,328v64H336v96H176V392H144V328a96,96,0,0,1,96-96h32A96,96,0,0,1,368,328Z" style="fill:#f7b030"/><rect x="224" y="224" width="64" height="56" style="fill:#f0c6a4"/><circle cx="272" cy="344" r="8" style="fill:#e37e22"/><circle cx="272" cy="392" r="8" style="fill:#e37e22"/><circle cx="272" cy="440" r="8" style="fill:#e37e22"/><rect x="248" y="280" width="16" height="208" style="fill:#eba72e"/><path d="M224.77,232s-6.708,48,31.23,48a26.574,26.574,0,0,1-24.926,16C186.489,296,174.441,232,224.77,232Z" style="fill:#e37e22"/><path d="M287.23,232s6.708,48-31.23,48a26.574,26.574,0,0,0,24.926,16C325.511,296,337.559,232,287.23,232Z" style="fill:#e37e22"/><circle cx="336" cy="64" r="40" style="fill:#734b39"/><path d="M360,136c0-61.856-48-112-104-112S152,74.144,152,136v24H360Z" style="fill:#8c5237"/><path d="M344,136H320v24h0a24,24,0,1,0,24-24Z" style="fill:#f0c6a4"/><path d="M168,136a24,24,0,1,0,24,24V136Z" style="fill:#f0c6a4"/><path d="M336,352a8,8,0,0,0-8,8v32h16V360A8,8,0,0,0,336,352Z" style="fill:#eba72e"/><path d="M176,352a8,8,0,0,0-8,8v32h16V360A8,8,0,0,0,176,352Z" style="fill:#eba72e"/><path d="M336,136v32a80,80,0,0,1-160,0V136c25.63-1.07,104-7.85,104-48C280,88,287.22,131.7,336,136Z" style="fill:#f7cca9"/><circle cx="224" cy="168" r="8" style="fill:#d49073"/><circle cx="288" cy="168" r="8" style="fill:#d49073"/><path d="M256,216c-18.772,0-28.6-9.285-29.657-10.343a8,8,0,0,1,11.314-11.314c.057.057,6.2,5.657,18.343,5.657s18.287-5.6,18.343-5.657a8,8,0,0,1,11.314,11.314C284.6,206.715,274.772,216,256,216Z" style="fill:#d49073"/></svg>