<?xml version="1.0" encoding="UTF-8"?>
<svg id="Layer_2" data-name="Layer 2" xmlns="http://www.w3.org/2000/svg" viewBox="0 0 64 64">
  <path d="M55.387,5.22H8.614c-1.993,0-3.614,1.621-3.614,3.613v35.553c0,1.993,1.621,3.614,3.614,3.614h17.188l-1.636,9h-4.165c-.552,0-1,.448-1,1s.448,1,1,1h24c.553,0,1-.448,1-1s-.447-1-1-1h-4.166l-1.636-9h17.189c1.992,0,3.613-1.621,3.613-3.614V8.833c0-1.992-1.621-3.613-3.613-3.613ZM7,8.833c0-.89.724-1.613,1.614-1.613h46.773c.89,0,1.613.724,1.613,1.613v31.167H7V8.833ZM37.802,57h-11.604l1.636-9h8.331l1.637,9ZM57,44.386c0,.89-.724,1.614-1.613,1.614H8.614c-.89,0-1.614-.724-1.614-1.614v-2.386h50v2.386Z"/>
  <path d="M20,22c3.309,0,6-2.691,6-6s-2.691-6-6-6-6,2.691-6,6,2.691,6,6,6ZM20,12c2.206,0,4,1.794,4,4s-1.794,4-4,4-4-1.794-4-4,1.794-4,4-4Z"/>
  <path d="M22.911,24h-5.821c-3.358,0-6.089,2.731-6.089,6.089v5.911c0,.552.448,1,1,1s1-.448,1-1v-5.911c0-2.255,1.834-4.089,4.089-4.089h5.821c2.255,0,4.089,1.834,4.089,4.089v5.911c0,.552.448,1,1,1s1-.448,1-1v-5.911c0-3.358-2.731-6.089-6.089-6.089Z"/>
  <path d="M52,19h-4c-.553,0-1,.448-1,1v16c0,.552.447,1,1,1h4c.553,0,1-.448,1-1v-16c0-.552-.447-1-1-1ZM51,35h-2v-14h2v14Z"/>
  <path d="M45,23h-4c-.553,0-1,.448-1,1v12c0,.552.447,1,1,1h4c.553,0,1-.448,1-1v-12c0-.552-.447-1-1-1ZM44,35h-2v-10h2v10Z"/>
  <path d="M38,27h-4c-.553,0-1,.448-1,1v8c0,.552.447,1,1,1h4c.553,0,1-.448,1-1v-8c0-.552-.447-1-1-1ZM37,35h-2v-6h2v6Z"/>
  <path d="M33,13h15c.553,0,1-.448,1-1s-.447-1-1-1h-15c-.552,0-1,.448-1,1s.448,1,1,1Z"/>
  <path d="M40,17c.553,0,1-.448,1-1s-.447-1-1-1h-7c-.552,0-1,.448-1,1s.448,1,1,1h7Z"/>
</svg>