<?xml version="1.0" encoding="UTF-8"?>
<svg id="Layer_2" data-name="Layer 2" xmlns="http://www.w3.org/2000/svg" viewBox="0 0 64 64">
  <path d="M24.007,17.727h4.766l2.427,3.237c.189.251.485.4.8.4s.611-.148.8-.4l2.427-3.237h4.766c1.658,0,3.007-1.349,3.007-3.007V6.007c0-1.658-1.349-3.007-3.007-3.007h-15.985c-1.658,0-3.007,1.349-3.007,3.007v8.712c0,1.658,1.349,3.007,3.007,3.007ZM23,6.007c0-.556.452-1.007,1.007-1.007h15.985c.556,0,1.007.452,1.007,1.007v8.712c0,.556-.452,1.007-1.007,1.007h-5.266c-.315,0-.611.148-.8.4l-1.927,2.57-1.927-2.57c-.189-.251-.485-.4-.8-.4h-5.266c-.556,0-1.007-.452-1.007-1.007V6.007Z"/>
  <path d="M52,31c-2.769,0-5.379,1.296-7.08,3.467-2.101-.533-4.405-.926-6.751-1.164.529-.985.831-2.109.831-3.303,0-3.86-3.14-7-7-7s-7,3.14-7,7c0,1.194.302,2.319.831,3.303-2.347.239-4.652.632-6.755,1.166-.179-.228-.354-.46-.553-.669-1.716-1.806-4.033-2.8-6.523-2.8-4.962,0-9,4.038-9,9v12c0,.552.448,1,1,1s1-.448,1-1v-12c0-3.86,3.14-7,7-7,1.888,0,3.644.739,4.968,2.077-4.087,1.341-6.968,3.324-6.968,5.923,0,3.351,4.852,6.074,13,7.333v11.667c0,.552.448,1,1,1s1-.448,1-1v-12c0-3.86,3.14-7,7-7s7,3.14,7,7v12c0,.552.448,1,1,1s1-.448,1-1v-11.667c8.149-1.259,13-3.979,13-7.333,0-2.6-2.875-4.582-6.959-5.923,1.304-1.311,3.085-2.077,4.959-2.077,3.86,0,7,3.14,7,7v12c0,.552.448,1,1,1s1-.448,1-1v-12c0-4.962-4.038-9-9-9ZM32,25c2.757,0,5,2.243,5,5s-2.243,5-5,5-5-2.243-5-5,2.243-5,5-5ZM52,41c0,1.806-3.837,4.174-11.161,5.334-.785-4.168-4.447-7.334-8.839-7.334s-8.055,3.166-8.839,7.334c-7.323-1.16-11.161-3.531-11.161-5.334,0-2.292,5.724-5.077,15.31-5.818,1.243,1.126,2.885,1.818,4.69,1.818s3.447-.692,4.689-1.818c9.587.74,15.311,3.523,15.311,5.818Z"/>
  <path d="M52,29c3.86,0,7-3.14,7-7s-3.14-7-7-7-7,3.14-7,7,3.14,7,7,7ZM52,17c2.757,0,5,2.243,5,5s-2.243,5-5,5-5-2.243-5-5,2.243-5,5-5Z"/>
  <path d="M12,29c3.86,0,7-3.14,7-7s-3.14-7-7-7-7,3.14-7,7,3.14,7,7,7ZM12,17c2.757,0,5,2.243,5,5s-2.243,5-5,5-5-2.243-5-5,2.243-5,5-5Z"/>
</svg>