<?xml version="1.0" encoding="UTF-8"?>
<svg id="Layer_2" data-name="Layer 2" xmlns="http://www.w3.org/2000/svg" viewBox="0 0 64 64">
  <path d="M55.386,7h-15.386c-.006,0-.011.003-.016.003-1.826-2.425-4.72-4.003-7.984-4.003s-6.157,1.578-7.984,4.003c-.006,0-.011-.003-.016-.003h-15.386c-1.993,0-3.614,1.621-3.614,3.614v35.552c0,1.993,1.621,3.614,3.614,3.614h17.188l-1.636,9h-4.165c-.552,0-1,.447-1,1s.448,1,1,1h24c.552,0,1-.447,1-1s-.448-1-1-1h-4.165l-1.636-9h17.188c1.993,0,3.614-1.621,3.614-3.614V10.614c0-1.993-1.621-3.614-3.614-3.614ZM55.386,9c.89,0,1.614.724,1.614,1.614v31.167h-3v-3.649c0-2.277-1.853-4.131-4.131-4.131h-9.738c-2.278,0-4.131,1.854-4.131,4.131v3.649h-3v-18.831c5.046-.503,9-4.773,9-9.949,0-1.422-.303-2.774-.841-4h14.227ZM52,41.78h-14v-3.649c0-1.175.956-2.131,2.131-2.131h9.738c1.175,0,2.131.956,2.131,2.131v3.649ZM32,5c4.411,0,8,3.589,8,8s-3.589,8-8,8-8-3.589-8-8,3.589-8,8-8ZM7,10.614c0-.89.724-1.614,1.614-1.614h14.227c-.538,1.226-.841,2.578-.841,4,0,5.177,3.954,9.446,9,9.949v18.831h-3v-3.649c0-2.277-1.853-4.131-4.131-4.131h-9.738c-2.278,0-4.131,1.854-4.131,4.131v3.649h-3V10.614ZM26,41.78h-14v-3.649c0-1.175.956-2.131,2.131-2.131h9.738c1.175,0,2.131.956,2.131,2.131v3.649ZM7,46.166v-2.386h24v4H8.614c-.89,0-1.614-.725-1.614-1.614ZM37.802,58.78h-11.604l1.636-9h8.331l1.636,9ZM57,46.166c0,.89-.724,1.614-1.614,1.614h-22.386v-4h24v2.386Z"/>
  <path d="M39,26c0,3.309,2.691,6,6,6s6-2.691,6-6-2.691-6-6-6-6,2.691-6,6ZM45,22c2.206,0,4,1.794,4,4s-1.794,4-4,4-4-1.794-4-4,1.794-4,4-4Z"/>
  <path d="M19,32c3.309,0,6-2.691,6-6s-2.691-6-6-6-6,2.691-6,6,2.691,6,6,6ZM19,22c2.206,0,4,1.794,4,4s-1.794,4-4,4-4-1.794-4-4,1.794-4,4-4Z"/>
  <path d="M33,16h-4c-.552,0-1,.448-1,1s.448,1,1,1h2v1c0,.552.448,1,1,1s1-.448,1-1v-1c1.654,0,3-1.346,3-3s-1.346-3-3-3h-2c-.551,0-1-.449-1-1s.449-1,1-1h4c.552,0,1-.448,1-1s-.448-1-1-1h-2v-1c0-.552-.448-1-1-1s-1,.448-1,1v1c-1.654,0-3,1.346-3,3s1.346,3,3,3h2c.551,0,1,.449,1,1s-.449,1-1,1Z"/>
</svg>