<?xml version="1.0" encoding="UTF-8"?>
<svg id="Layer_2" data-name="Layer 2" xmlns="http://www.w3.org/2000/svg" viewBox="0 0 64 64">
  <path d="M54.521,47h-3.798c.543-.677,1.048-1.383,1.514-2.113,3.317-.598,5.764-3.474,5.764-6.887,0-1.853-.743-3.617-2.036-4.917.017-.36.036-.72.036-1.083,0-10.605-6.988-19.931-17.07-22.953-.458-3.444-3.374-6.047-6.93-6.047s-6.472,2.603-6.93,6.047c-10.082,3.021-17.07,12.347-17.07,22.953,0,.363.019.723.036,1.084-1.295,1.303-2.036,3.065-2.036,4.916,0,3.41,2.441,6.283,5.763,6.886.466.731.971,1.436,1.514,2.114h-3.798c-3.573,0-6.479,2.906-6.479,6.479v6.521c0,.553.447,1,1,1s1-.447,1-1v-6.521c0-2.47,2.01-4.479,4.479-4.479h7.041c2.47,0,4.479,2.01,4.479,4.479v6.521c0,.553.447,1,1,1s1-.447,1-1v-5.747c2.854,1.158,5.874,1.747,9,1.747s6.146-.59,9-1.749v5.749c0,.553.447,1,1,1s1-.447,1-1v-6.521c0-2.47,2.01-4.479,4.479-4.479h7.041c2.47,0,4.479,2.01,4.479,4.479v6.521c0,.553.447,1,1,1s1-.447,1-1v-6.521c0-3.573-2.906-6.479-6.479-6.479ZM51.542,42.975c-.178.018-.355.025-.542.025-2.757,0-5-2.243-5-5s2.243-5,5-5c1.219,0,2.386.439,3.293,1.243,1.085.947,1.707,2.316,1.707,3.757,0,2.558-1.922,4.696-4.458,4.975ZM32,5c2.302,0,4.215,1.535,4.803,3.712l.196,1.217v.071c0,2.757-2.242,5-4.999,5s-5-2.243-5.003-5.041l.217-1.342c.594-2.099,2.497-3.617,4.786-3.617ZM8,38c0-1.44.622-2.81,1.713-3.762.901-.799,2.068-1.238,3.287-1.238,2.757,0,5,2.243,5,5s-2.243,5-5,5c-.187,0-.364-.008-.53-.024-2.548-.279-4.47-2.418-4.47-4.976ZM41.179,51.99c-2.886,1.329-5.971,2.01-9.179,2.01s-6.294-.679-9.179-2.008c-.675-2.857-3.24-4.992-6.301-4.992h-.597c-.621-.665-1.188-1.375-1.722-2.111,3.288-.573,5.798-3.44,5.798-6.889,0-3.859-3.141-7-7-7-1.045,0-2.064.234-2.986.67.141-9.393,6.244-17.637,15.086-20.54.543,3.323,3.426,5.869,6.9,5.869s6.357-2.547,6.9-5.869c8.842,2.903,14.946,11.147,15.086,20.54-.924-.437-1.942-.671-2.987-.671-3.859,0-7,3.141-7,7,0,3.449,2.51,6.316,5.797,6.889-.534.736-1.102,1.445-1.723,2.111h-.595c-3.06,0-5.625,2.134-6.3,4.99Z"/>
  <path d="M35.521,19h-7.041c-3.573,0-6.479,2.906-6.479,6.479v6.521c0,.553.447,1,1,1s1-.447,1-1v-6.521c0-2.47,2.01-4.479,4.479-4.479h7.041c2.47,0,4.479,2.01,4.479,4.479v6.521c0,.553.447,1,1,1s1-.447,1-1v-6.521c0-3.573-2.906-6.479-6.479-6.479Z"/>
</svg>