<?xml version="1.0" encoding="UTF-8"?>
<svg id="Layer_2" data-name="Layer 2" xmlns="http://www.w3.org/2000/svg" viewBox="0 0 64 64">
  <path d="M25,19h-12c-.552,0-1,.447-1,1s.448,1,1,1h12c.552,0,1-.447,1-1s-.448-1-1-1Z"/>
  <path d="M25,25h-12c-.552,0-1,.447-1,1s.448,1,1,1h12c.552,0,1-.447,1-1s-.448-1-1-1Z"/>
  <path d="M25,31h-12c-.552,0-1,.447-1,1s.448,1,1,1h12c.552,0,1-.447,1-1s-.448-1-1-1Z"/>
  <path d="M25,37h-12c-.552,0-1,.447-1,1s.448,1,1,1h12c.552,0,1-.447,1-1s-.448-1-1-1Z"/>
  <path d="M25,43h-12c-.552,0-1,.447-1,1s.448,1,1,1h12c.552,0,1-.447,1-1s-.448-1-1-1Z"/>
  <path d="M25,49h-12c-.552,0-1,.447-1,1s.448,1,1,1h12c.552,0,1-.447,1-1s-.448-1-1-1Z"/>
  <path d="M57,35c0-7.382-5.747-13.433-13-13.949v-8.394c0-2.016-1.641-3.656-3.657-3.656h-6.343v-1c0-.553-.448-1-1-1h-3.101c-.464-2.279-2.485-4-4.899-4s-4.435,1.721-4.899,4h-3.101c-.552,0-1,.447-1,1v1h-6.343c-2.016,0-3.657,1.641-3.657,3.656v44.688c0,2.016,1.641,3.656,3.657,3.656h30.687c2.016,0,3.657-1.641,3.657-3.656v-8.394c7.253-.516,13-6.567,13-13.949ZM18,9h3c.552,0,1-.447,1-1,0-1.654,1.346-3,3-3s3,1.346,3,3c0,.553.448,1,1,1h3v2h-14v-2ZM40.343,59H9.657c-.914,0-1.657-.743-1.657-1.656V12.656c0-.913.743-1.656,1.657-1.656h6.343v1c0,.553.448,1,1,1h16c.552,0,1-.447,1-1v-1h6.343c.914,0,1.657.743,1.657,1.656v8.394c-7.253.516-13,6.567-13,13.949s5.747,13.433,13,13.949v8.394c0,.913-.743,1.656-1.657,1.656ZM43,47c-6.617,0-12-5.383-12-12s5.383-12,12-12,12,5.383,12,12-5.383,12-12,12Z"/>
  <path d="M43,25c-5.514,0-10,4.486-10,10s4.486,10,10,10,10-4.486,10-10-4.486-10-10-10ZM43,43c-4.411,0-8-3.589-8-8s3.589-8,8-8,8,3.589,8,8-3.589,8-8,8Z"/>
  <path d="M42,32h4c.552,0,1-.447,1-1s-.448-1-1-1h-2v-1c0-.553-.448-1-1-1s-1,.447-1,1v1c-1.654,0-3,1.346-3,3s1.346,3,3,3h2c.551,0,1,.448,1,1s-.449,1-1,1h-4c-.552,0-1,.447-1,1s.448,1,1,1h2v1c0,.553.448,1,1,1s1-.447,1-1v-1c1.654,0,3-1.346,3-3s-1.346-3-3-3h-2c-.551,0-1-.448-1-1s.449-1,1-1Z"/>
</svg>