<?xml version="1.0" encoding="UTF-8"?>
<svg id="Layer_2" data-name="Layer 2" xmlns="http://www.w3.org/2000/svg" viewBox="0 0 64 64">
  <path d="M57.838,32.614l-4.84-8.872c-.067-5.718-2.384-11.026-6.54-14.973-4.217-4.003-9.743-6.04-15.574-5.74-10.519.545-19.621,9.91-19.878,20.451-.106,4.392,1.139,8.63,3.601,12.258,1.823,2.686,2.7,5.935,2.471,9.149l-1.074,15.042c-.04.551.375,1.029.926,1.069.024.001.049.002.072.002.52,0,.959-.402.996-.929l1.074-15.042c.263-3.66-.735-7.358-2.811-10.415-2.227-3.281-3.352-7.114-3.255-11.086.228-9.372,8.63-18.018,17.981-18.502,5.284-.269,10.279,1.571,14.093,5.193,3.817,3.625,5.92,8.519,5.92,13.781,0,.167.042.332.122.479l4.96,9.093c.068.125.026.233-.005.286-.032.053-.106.142-.25.142h-3.827c-.553,0-1,.448-1,1v9.338c0,.413-.167.794-.47,1.075-.303.28-.7.417-1.106.386l-8.515-.655c-.755-.056-1.487.213-2.021.745-.533.531-.809,1.266-.754,2.016l.869,12.167c.038.55.499.952,1.068.926.551-.04.966-.518.926-1.069l-.869-12.167c-.017-.231.1-.384.171-.455.07-.071.22-.188.456-.168l8.516.655c.946.076,1.913-.259,2.619-.913.705-.654,1.11-1.58,1.11-2.542v-8.338h2.827c.816,0,1.553-.419,1.97-1.121.416-.702.432-1.548.041-2.265Z"/>
  <path d="M44,21c0-3.408-1.457-6.668-3.998-8.943-2.539-2.274-5.955-3.358-9.37-2.981-5.5.61-9.938,5.046-10.555,10.546-.42,3.756.892,7.405,3.601,10.01,1.547,1.487,2.434,3.549,2.434,5.656v4.193c0,1.239.849,2.275,1.992,2.583l.251,1.254c.223,1.103,1.199,1.903,2.323,1.903h2.645c1.124,0,2.101-.8,2.323-1.905l.25-1.253c1.144-.308,1.993-1.344,1.993-2.583v-4.193c0-2.109.885-4.168,2.427-5.65,2.376-2.282,3.685-5.35,3.685-8.638ZM33.685,42.924c-.034.172-.188.298-.362.298h-2.645c-.175,0-.328-.125-.362-.296l-.151-.759h3.672l-.151.758ZM35.889,39.481c0,.378-.308.685-.686.685h-6.406c-.378,0-.686-.307-.686-.685v-2.204h7.777v2.204ZM29.167,21.833h-1.14c-.291,0-.527-.237-.527-.528s.236-.528.527-.528h.611c.291,0,.528.237.528.528v.528ZM32.833,35.278h-1.666v-11.444h1.666v11.444ZM35.889,35.278h-1.056v-11.444h1.14c1.394,0,2.527-1.134,2.527-2.528s-1.134-2.528-2.527-2.528h-.611c-1.395,0-2.528,1.134-2.528,2.528v.528h-1.666v-.528c0-1.394-1.134-2.528-2.528-2.528h-.611c-1.394,0-2.527,1.134-2.527,2.528s1.134,2.528,2.527,2.528h1.14v11.444h-1.056c-.003-2.645-1.113-5.227-3.047-7.087-2.257-2.171-3.351-5.213-2.999-8.346.512-4.58,4.208-8.273,8.787-8.781,2.891-.322,5.668.562,7.815,2.483,2.117,1.896,3.332,4.612,3.332,7.453,0,2.739-1.09,5.294-3.069,7.196-1.931,1.854-3.039,4.435-3.042,7.082ZM34.833,21.833v-.528c0-.291.237-.528.528-.528h.611c.291,0,.527.237.527.528s-.236.528-.527.528h-1.14Z"/>
</svg>