<?xml version="1.0" encoding="UTF-8"?>
<svg id="Layer_2" data-name="Layer 2" xmlns="http://www.w3.org/2000/svg" viewBox="0 0 64 64">
  <path d="M48,19c4.411,0,8-3.589,8-8s-3.589-8-8-8-8,3.589-8,8,3.589,8,8,8ZM48,5c3.309,0,6,2.691,6,6s-2.691,6-6,6-6-2.691-6-6,2.691-6,6-6Z"/>
  <path d="M53.41,21h-10.82c-4.185,0-7.59,3.405-7.59,7.589v11.016c0,1.872,1.522,3.395,3.395,3.395h1.605v17c0,.552.447,1,1,1s1-.448,1-1v-31c0-.552-.447-1-1-1s-1,.448-1,1v12h-1.605c-.769,0-1.395-.625-1.395-1.395v-11.016c0-3.082,2.508-5.589,5.59-5.589h10.82c3.082,0,5.59,2.507,5.59,5.589v11.016c0,.769-.626,1.395-1.395,1.395h-1.605v-12c0-.552-.447-1-1-1s-1,.448-1,1v31c0,.552.447,1,1,1s1-.448,1-1v-17h1.605c1.872,0,3.395-1.523,3.395-3.395v-11.016c0-4.185-3.405-7.589-7.59-7.589Z"/>
  <path d="M48,42c-.553,0-1,.448-1,1v17c0,.552.447,1,1,1s1-.448,1-1v-17c0-.552-.447-1-1-1Z"/>
  <path d="M16,19c4.411,0,8-3.589,8-8s-3.589-8-8-8-8,3.589-8,8,3.589,8,8,8ZM16,5c3.309,0,6,2.691,6,6s-2.691,6-6,6-6-2.691-6-6,2.691-6,6-6Z"/>
  <path d="M21.41,21h-10.82c-4.185,0-7.59,3.405-7.59,7.589v7.833c0,2.524,2.054,4.578,4.577,4.578h.423v19c0,.552.447,1,1,1s1-.448,1-1v-19h4.5c1.93,0,3.5-1.57,3.5-3.5s-1.57-3.5-3.5-3.5h-4.5v-5c0-.552-.447-1-1-1s-1,.448-1,1v6c0,.552.447,1,1,1h5.5c.827,0,1.5.673,1.5,1.5s-.673,1.5-1.5,1.5h-6.923c-1.421,0-2.577-1.156-2.577-2.578v-7.833c0-3.082,2.508-5.589,5.59-5.589h10.82c3.082,0,5.59,2.507,5.59,5.589v11.016c0,.769-.626,1.395-1.395,1.395h-1.605v-12c0-.552-.447-1-1-1s-1,.448-1,1v31c0,.552.447,1,1,1s1-.448,1-1v-17h1.605c1.872,0,3.395-1.523,3.395-3.395v-11.016c0-4.185-3.405-7.589-7.59-7.589Z"/>
  <path d="M16,44c-.553,0-1,.448-1,1v15c0,.552.447,1,1,1s1-.448,1-1v-15c0-.552-.447-1-1-1Z"/>
</svg>