<?xml version="1.0" encoding="UTF-8"?>
<svg id="Layer_2" data-name="Layer 2" xmlns="http://www.w3.org/2000/svg" viewBox="0 0 64 64">
  <path d="M16,42c4.411,0,8-3.589,8-8s-3.589-8-8-8-8,3.589-8,8,3.589,8,8,8ZM16,28c3.309,0,6,2.691,6,6s-2.691,6-6,6-6-2.691-6-6,2.691-6,6-6Z"/>
  <path d="M21.411,44h-10.821c-4.185,0-7.589,3.405-7.589,7.589v8.411c0,.552.448,1,1,1s1-.448,1-1v-8.411c0-3.082,2.507-5.589,5.589-5.589h10.821c3.082,0,5.589,2.507,5.589,5.589v8.411c0,.552.448,1,1,1s1-.448,1-1v-8.411c0-4.185-3.405-7.589-7.589-7.589Z"/>
  <path d="M9,51c-.552,0-1,.448-1,1v8c0,.552.448,1,1,1s1-.448,1-1v-8c0-.552-.448-1-1-1Z"/>
  <path d="M23,51c-.552,0-1,.448-1,1v8c0,.552.448,1,1,1s1-.448,1-1v-8c0-.552-.448-1-1-1Z"/>
  <path d="M40,34c0,4.411,3.589,8,8,8s8-3.589,8-8-3.589-8-8-8-8,3.589-8,8ZM48,28c3.309,0,6,2.691,6,6s-2.691,6-6,6-6-2.691-6-6,2.691-6,6-6Z"/>
  <path d="M53.411,44h-10.821c-4.185,0-7.589,3.405-7.589,7.589v8.411c0,.552.448,1,1,1s1-.448,1-1v-8.411c0-3.082,2.507-5.589,5.589-5.589h10.821c3.082,0,5.589,2.507,5.589,5.589v8.411c0,.552.448,1,1,1s1-.448,1-1v-8.411c0-4.185-3.405-7.589-7.589-7.589Z"/>
  <path d="M41,51c-.552,0-1,.448-1,1v8c0,.552.448,1,1,1s1-.448,1-1v-8c0-.552-.448-1-1-1Z"/>
  <path d="M55,51c-.552,0-1,.448-1,1v8c0,.552.448,1,1,1s1-.448,1-1v-8c0-.552-.448-1-1-1Z"/>
  <path d="M35.782,8.342c-1.41-1.146-3.258-1.584-5.064-1.208-2.358.492-4.217,2.426-4.627,4.811-.364,2.115.381,4.207,1.993,5.594.421.363.706.883.836,1.477-.512.043-.919.46-.919.984v2.561c0,1.345,1.094,2.439,2.439,2.439h3.121c1.345,0,2.439-1.094,2.439-2.439v-2.561c0-.519-.401-.932-.907-.981.153-.593.498-1.165,1.019-1.654,1.2-1.128,1.889-2.719,1.889-4.364,0-1.815-.809-3.513-2.218-4.658ZM34,22.561c0,.242-.197.439-.439.439h-3.121c-.242,0-.439-.197-.439-.439v-1.561h4v1.561ZM34.741,15.907c-.934.878-1.52,1.957-1.689,3.093h-2.101c-.16-1.183-.71-2.242-1.562-2.976-1.074-.925-1.57-2.324-1.327-3.74.268-1.559,1.528-2.871,3.065-3.192,1.235-.257,2.44.026,3.394.802.94.764,1.479,1.896,1.479,3.106,0,1.112-.447,2.144-1.259,2.907Z"/>
  <path d="M45,16c0-7.168-5.832-13-13-13s-13,5.832-13,13c0,5.714,3.773,10.773,9.219,12.427l2.967,4.154c.188.263.491.419.814.419s.626-.156.814-.419l2.967-4.154c5.446-1.654,9.219-6.713,9.219-12.427ZM34.355,26.982l-2.355,3.297-2.355-3.297c-.134-.188-.328-.323-.55-.383-4.766-1.304-8.095-5.662-8.095-10.599,0-6.065,4.935-11,11-11s11,4.935,11,11c0,4.937-3.329,9.295-8.095,10.599-.222.061-.417.196-.55.383Z"/>
</svg>