<?xml version="1.0" encoding="UTF-8"?>
<svg id="Layer_2" data-name="Layer 2" xmlns="http://www.w3.org/2000/svg" viewBox="0 0 64 64">
  <path d="M56.381,23.84l-12.381-5.098v-6.085c0-2.016-1.641-3.657-3.656-3.657h-6.344v-1c0-.552-.447-1-1-1h-3.101c-.465-2.279-2.484-4-4.899-4s-4.435,1.721-4.899,4h-3.101c-.553,0-1,.448-1,1v1h-6.344c-2.016,0-3.656,1.641-3.656,3.657v44.687c0,2.016,1.641,3.657,3.656,3.657h30.688c2.016,0,3.656-1.641,3.656-3.657v-6.741l6.523-3.454c3.995-2.115,6.477-6.236,6.477-10.757v-11.627c0-.405-.244-.771-.619-.925ZM18,9h3c.553,0,1-.448,1-1,0-1.654,1.346-3,3-3s3,1.346,3,3c0,.552.447,1,1,1h3v2h-14v-2ZM40.344,59H9.656c-.913,0-1.656-.743-1.656-1.657V12.657c0-.914.743-1.657,1.656-1.657h6.344v1c0,.552.447,1,1,1h16c.553,0,1-.448,1-1v-1h6.344c.913,0,1.656.743,1.656,1.657v6.12l-12.426,5.847c-.351.165-.574.518-.574.905v10.862c0,4.521,2.481,8.642,6.477,10.757l6.523,3.454v6.741c0,.914-.743,1.657-1.656,1.657ZM55,36.392c0,3.777-2.074,7.222-5.412,8.989l-6.588,3.488-6.588-3.488c-3.338-1.767-5.412-5.212-5.412-8.989v-10.228l12.027-5.66,11.973,4.93v10.957Z"/>
  <path d="M42.574,22.801l-9.35,4.4c-.351.165-.574.518-.574.905v7.812c0,3.355,1.842,6.415,4.808,7.985l5.074,2.687c.146.078.307.116.468.116s.321-.039.468-.116l5.074-2.687c2.966-1.57,4.808-4.629,4.808-7.985v-8.363c0-.405-.244-.771-.619-.925l-9.35-3.85c-.261-.107-.553-.101-.807.02ZM51.35,28.226v7.693c0,2.613-1.435,4.995-3.743,6.217l-4.606,2.439-4.606-2.439c-2.309-1.222-3.743-3.604-3.743-6.217v-7.178l8.377-3.942,8.322,3.427Z"/>
  <path d="M25,19h-12c-.553,0-1,.448-1,1s.447,1,1,1h12c.553,0,1-.448,1-1s-.447-1-1-1Z"/>
  <path d="M25,25h-12c-.553,0-1,.448-1,1s.447,1,1,1h12c.553,0,1-.448,1-1s-.447-1-1-1Z"/>
  <path d="M25,31h-12c-.553,0-1,.448-1,1s.447,1,1,1h12c.553,0,1-.448,1-1s-.447-1-1-1Z"/>
  <path d="M25,37h-12c-.553,0-1,.448-1,1s.447,1,1,1h12c.553,0,1-.448,1-1s-.447-1-1-1Z"/>
  <path d="M25,43h-12c-.553,0-1,.448-1,1s.447,1,1,1h12c.553,0,1-.448,1-1s-.447-1-1-1Z"/>
  <path d="M25,49h-12c-.553,0-1,.448-1,1s.447,1,1,1h12c.553,0,1-.448,1-1s-.447-1-1-1Z"/>
  <path d="M43,37c.553,0,1-.448,1-1v-7c0-.552-.447-1-1-1s-1,.448-1,1v7c0,.552.447,1,1,1Z"/>
  <circle cx="43" cy="39" r="1"/>
</svg>