<?xml version="1.0" encoding="UTF-8"?>
<svg id="Layer_2" data-name="Layer 2" xmlns="http://www.w3.org/2000/svg" viewBox="0 0 64 64">
  <path d="M31,17c0-7.72-6.28-14-14-14S3,9.28,3,17s6.28,14,14,14,14-6.28,14-14ZM5.051,18h1.949c.553,0,1-.447,1-1s-.447-1-1-1h-1.949c.483-5.819,5.13-10.466,10.949-10.949v1.949c0,.553.447,1,1,1s1-.447,1-1v-1.949c5.819.483,10.466,5.13,10.949,10.949h-1.949c-.553,0-1,.447-1,1s.447,1,1,1h1.949c-.511,6.15-5.67,11-11.949,11s-11.438-4.85-11.949-11Z"/>
  <path d="M20,17c0-.463-.114-.896-.302-1.287.003-.003.006-.003.009-.006l4-4c.391-.391.391-1.023,0-1.414s-1.023-.391-1.414,0l-4,4s-.003.006-.006.009c-.392-.188-.825-.302-1.287-.302-1.654,0-3,1.346-3,3s1.346,3,3,3,3-1.346,3-3ZM16,17c0-.552.448-1,1-1s1,.448,1,1-.448,1-1,1-1-.448-1-1Z"/>
  <path d="M60,59h-2V17.455c0-1.354-1.102-2.455-2.455-2.455h-5.09c-1.354,0-2.455,1.102-2.455,2.455v41.545h-2v-31.545c0-1.354-1.102-2.455-2.455-2.455h-5.09c-1.354,0-2.455,1.102-2.455,2.455v31.545h-2v-21.545c0-1.354-1.102-2.455-2.455-2.455h-5.09c-1.354,0-2.455,1.102-2.455,2.455v21.545h-3v-11.545c0-1.354-1.102-2.455-2.455-2.455h-5.09c-1.354,0-2.455,1.102-2.455,2.455v11.545h-2c-.553,0-1,.447-1,1s.447,1,1,1h51c.553,0,1-.447,1-1s-.447-1-1-1ZM13,59v-11.545c0-.251.204-.455.455-.455h5.09c.251,0,.455.204.455.455v11.545h-6ZM26,59v-21.545c0-.251.204-.455.455-.455h5.09c.251,0,.455.204.455.455v21.545h-6ZM38,59v-31.545c0-.251.204-.455.455-.455h5.09c.251,0,.455.204.455.455v31.545h-6ZM50,59V17.455c0-.251.204-.455.455-.455h5.09c.251,0,.455.204.455.455v41.545h-6Z"/>
</svg>