<?xml version="1.0" encoding="UTF-8"?>
<svg id="Layer_2" data-name="Layer 2" xmlns="http://www.w3.org/2000/svg" viewBox="0 0 64 64">
  <path d="M24.304,25.147c5.229,0,9.483-4.254,9.483-9.483s-4.254-9.483-9.483-9.483-9.482,4.254-9.482,9.483,4.254,9.483,9.482,9.483ZM24.304,8.181c4.126,0,7.483,3.357,7.483,7.483s-3.357,7.483-7.483,7.483-7.482-3.357-7.482-7.483,3.356-7.483,7.482-7.483Z"/>
  <path d="M15.468,30.156c.188-.188.293-.442.293-.707s-.105-.52-.293-.707l-.884-.883,2.102-2.101c2.123,1.606,4.756,2.571,7.618,2.571,6.983,0,12.664-5.681,12.664-12.664S31.287,3,24.304,3s-12.664,5.681-12.664,12.664c0,3.402,1.355,6.488,3.545,8.766l-2.015,2.015-.884-.884c-.391-.391-1.023-.391-1.414,0l-6.892,6.892c-.614.614-.952,1.43-.952,2.298s.338,1.684.952,2.298h0c.613.614,1.43.952,2.297.952s1.684-.338,2.298-.952l6.893-6.893ZM24.304,5c5.88,0,10.664,4.784,10.664,10.664s-4.784,10.664-10.664,10.664-10.664-4.784-10.664-10.664,4.784-10.664,10.664-10.664ZM5.395,35.634h0c-.236-.236-.366-.55-.366-.884s.13-.647.366-.883l6.185-6.186.883.883s0,0,0,0,0,0,0,0l.883.883-6.186,6.185c-.472.472-1.294.473-1.767,0Z"/>
  <path d="M60,59h-2V17.455c0-1.354-1.102-2.455-2.455-2.455h-5.09c-1.354,0-2.455,1.102-2.455,2.455v41.545h-2v-31.545c0-1.354-1.102-2.455-2.455-2.455h-5.09c-1.354,0-2.455,1.102-2.455,2.455v31.545h-2v-21.545c0-1.354-1.102-2.455-2.455-2.455h-5.09c-1.354,0-2.455,1.102-2.455,2.455v21.545h-3v-11.545c0-1.354-1.102-2.455-2.455-2.455h-5.09c-1.354,0-2.455,1.102-2.455,2.455v11.545h-2c-.553,0-1,.448-1,1s.447,1,1,1h51c.553,0,1-.448,1-1s-.447-1-1-1ZM13,59v-11.545c0-.251.204-.455.455-.455h5.09c.251,0,.455.204.455.455v11.545h-6ZM26,59v-21.545c0-.251.204-.455.455-.455h5.09c.251,0,.455.204.455.455v21.545h-6ZM38,59v-31.545c0-.251.204-.455.455-.455h5.09c.251,0,.455.204.455.455v31.545h-6ZM50,59V17.455c0-.251.204-.455.455-.455h5.09c.251,0,.455.204.455.455v41.545h-6Z"/>
</svg>