<?xml version="1.0" encoding="UTF-8"?>
<svg id="Layer_2" data-name="Layer 2" xmlns="http://www.w3.org/2000/svg" viewBox="0 0 64 64">
  <path d="M32,47c3.309,0,6-2.691,6-6s-2.691-6-6-6-6,2.691-6,6,2.691,6,6,6ZM32,37c2.206,0,4,1.794,4,4s-1.794,4-4,4-4-1.794-4-4,1.794-4,4-4Z"/>
  <path d="M32,19c4.411,0,8-3.589,8-8s-3.589-8-8-8-8,3.589-8,8,3.589,8,8,8ZM32,5c3.309,0,6,2.691,6,6s-2.691,6-6,6-6-2.691-6-6,2.691-6,6-6Z"/>
  <path d="M36.869,49h-9.738c-2.278,0-4.131,1.853-4.131,4.131v6.869c0,.552.448,1,1,1s1-.448,1-1v-6.869c0-1.175.956-2.131,2.131-2.131h9.738c1.175,0,2.131.956,2.131,2.131v6.869c0,.552.448,1,1,1s1-.448,1-1v-6.869c0-2.278-1.853-4.131-4.131-4.131Z"/>
  <path d="M12,47c3.309,0,6-2.691,6-6s-2.691-6-6-6-6,2.691-6,6,2.691,6,6,6ZM12,37c2.206,0,4,1.794,4,4s-1.794,4-4,4-4-1.794-4-4,1.794-4,4-4Z"/>
  <path d="M16.869,49H7.131c-2.278,0-4.131,1.853-4.131,4.131v6.869c0,.552.448,1,1,1s1-.448,1-1v-6.869c0-1.175.956-2.131,2.131-2.131h9.738c1.175,0,2.131.956,2.131,2.131v6.869c0,.552.448,1,1,1s1-.448,1-1v-6.869c0-2.278-1.853-4.131-4.131-4.131Z"/>
  <path d="M52,47c3.309,0,6-2.691,6-6s-2.691-6-6-6-6,2.691-6,6,2.691,6,6,6ZM52,37c2.206,0,4,1.794,4,4s-1.794,4-4,4-4-1.794-4-4,1.794-4,4-4Z"/>
  <path d="M56.869,49h-9.738c-2.278,0-4.131,1.853-4.131,4.131v6.869c0,.552.448,1,1,1s1-.448,1-1v-6.869c0-1.175.956-2.131,2.131-2.131h9.738c1.175,0,2.131.956,2.131,2.131v6.869c0,.552.448,1,1,1s1-.448,1-1v-6.869c0-2.278-1.853-4.131-4.131-4.131Z"/>
  <path d="M43,25.24c0-2.338-1.902-4.24-4.24-4.24h-13.52c-2.338,0-4.24,1.902-4.24,4.24v10.76c0,.552.448,1,1,1s1-.448,1-1v-10.76c0-1.235,1.005-2.24,2.24-2.24h13.52c1.235,0,2.24,1.005,2.24,2.24v10.76c0,.552.448,1,1,1s1-.448,1-1v-10.76Z"/>
</svg>