<?xml version="1.0" encoding="UTF-8"?>
<svg id="Layer_2" data-name="Layer 2" xmlns="http://www.w3.org/2000/svg" viewBox="0 0 64 64">
  <path d="M25,19h-12c-.552,0-1,.447-1,1s.448,1,1,1h12c.552,0,1-.447,1-1s-.448-1-1-1Z"/>
  <path d="M25,25h-12c-.552,0-1,.447-1,1s.448,1,1,1h12c.552,0,1-.447,1-1s-.448-1-1-1Z"/>
  <path d="M13,33h9c.552,0,1-.447,1-1s-.448-1-1-1h-9c-.552,0-1,.447-1,1s.448,1,1,1Z"/>
  <path d="M13,39h9c.552,0,1-.447,1-1s-.448-1-1-1h-9c-.552,0-1,.447-1,1s.448,1,1,1Z"/>
  <path d="M25,43h-12c-.552,0-1,.447-1,1s.448,1,1,1h12c.552,0,1-.447,1-1s-.448-1-1-1Z"/>
  <path d="M25,49h-12c-.552,0-1,.447-1,1s.448,1,1,1h12c.552,0,1-.447,1-1s-.448-1-1-1Z"/>
  <path d="M30.181,34.664c0,5.229,4.254,9.482,9.483,9.482s9.482-4.254,9.482-9.482-4.254-9.483-9.482-9.483-9.483,4.254-9.483,9.483ZM47.146,34.664c0,4.126-3.356,7.482-7.482,7.482s-7.483-3.356-7.483-7.482,3.357-7.483,7.483-7.483,7.482,3.357,7.482,7.483Z"/>
  <path d="M59.988,51.453l-6.893-6.893c-.391-.391-1.023-.391-1.414,0l-.884.884-2.014-2.015c2.19-2.277,3.544-5.364,3.544-8.765,0-5.459-3.477-10.107-8.328-11.883v-10.125c0-2.016-1.641-3.656-3.656-3.656h-6.344v-1c0-.553-.447-1-1-1h-3.101c-.464-2.279-2.485-4-4.899-4s-4.435,1.721-4.899,4h-3.101c-.552,0-1,.447-1,1v1h-6.343c-2.016,0-3.657,1.641-3.657,3.656v44.688c0,2.016,1.641,3.656,3.657,3.656h30.687c2.016,0,3.656-1.641,3.656-3.656v-10.796c1.188-.435,2.291-1.04,3.283-1.791l2.101,2.102-.884.884c-.188.188-.293.441-.293.707s.105.52.293.707l6.893,6.892c.634.634,1.466.95,2.298.95s1.664-.316,2.298-.95c1.267-1.267,1.267-3.328,0-4.595ZM50.328,34.664c0,5.88-4.784,10.664-10.664,10.664s-10.664-4.784-10.664-10.664,4.784-10.664,10.664-10.664,10.664,4.784,10.664,10.664ZM18,9h3c.552,0,1-.447,1-1,0-1.654,1.346-3,3-3s3,1.346,3,3c0,.553.448,1,1,1h3v2h-14v-2ZM42,57.344c0,.913-.743,1.656-1.656,1.656H9.657c-.914,0-1.657-.743-1.657-1.656V12.656c0-.913.743-1.656,1.657-1.656h6.343v1c0,.553.448,1,1,1h16c.553,0,1-.447,1-1v-1h6.344c.913,0,1.656.743,1.656,1.656v9.569c-.758-.142-1.537-.225-2.336-.225-6.983,0-12.664,5.681-12.664,12.664s5.681,12.664,12.664,12.664c.799,0,1.578-.083,2.336-.225v10.241ZM58.574,54.634c-.488.486-1.279.486-1.768,0l-6.186-6.185,1.768-1.768,6.186,6.186c.487.487.487,1.279,0,1.767Z"/>
</svg>