<?xml version="1.0" encoding="UTF-8"?>
<svg id="Layer_2" data-name="Layer 2" xmlns="http://www.w3.org/2000/svg" viewBox="0 0 64 64">
  <path d="M60,43h-1V14.584c0-1.977-1.608-3.584-3.584-3.584h-23.416c-.031,0-.057.015-.086.017-.194-.191-.375-.394-.579-.576-3.649-3.267-8.362-4.762-13.274-4.223-7.791.864-14.079,7.146-14.951,14.938-.596,5.322,1.263,10.492,5.101,14.183,2.337,2.248,3.678,5.366,3.678,8.555v6.099c0,1.692,1.226,3.096,2.835,3.389l.42,2.102c.279,1.394,1.513,2.404,2.934,2.404h3.846c1.421,0,2.654-1.011,2.934-2.404l.42-2.102c1.609-.292,2.835-1.697,2.835-3.389v-4.993h7.271l-4.276,8.553c-.247.494-.047,1.095.447,1.342.144.071.296.105.446.105.367,0,.72-.202.896-.553l4.724-9.447h5.764l4.724,9.447c.175.351.528.553.896.553.15,0,.303-.034.446-.105.494-.247.694-.848.447-1.342l-4.276-8.553h14.382c.552,0,1-.447,1-1s-.448-1-1-1ZM9.597,33.898c-3.386-3.256-5.026-7.819-4.5-12.519.769-6.872,6.314-12.412,13.184-13.173,4.337-.484,8.5.842,11.72,3.725,3.177,2.844,4.999,6.919,4.999,11.18,0,4.109-1.635,7.943-4.604,10.794-2.635,2.53-4.169,6.023-4.266,9.629-.076.141-.13.294-.13.466,0,.118.03.228.067.333h-2.401v-17.555h2.111c1.777,0,3.222-1.445,3.222-3.222s-1.445-3.222-3.222-3.222h-.889c-1.777,0-3.222,1.445-3.222,3.222v1.222h-3.333v-1.222c0-1.777-1.445-3.222-3.222-3.222h-.889c-1.777,0-3.222,1.445-3.222,3.222s1.445,3.222,3.222,3.222h2.111v17.555h-2.445v-.438c0-3.729-1.564-7.373-4.292-9.996ZM18.333,44.333v-17.555h3.333v17.555h-3.333ZM16.333,24.778h-2.111c-.674,0-1.222-.548-1.222-1.222s.548-1.222,1.222-1.222h.889c.674,0,1.222.548,1.222,1.222v1.222ZM23.667,24.778v-1.222c0-.674.548-1.222,1.222-1.222h.889c.674,0,1.222.548,1.222,1.222s-.548,1.222-1.222,1.222h-2.111ZM22.896,55.092c-.093.462-.501.797-.973.797h-3.846c-.471,0-.88-.335-.973-.797l-.329-1.647h6.449l-.329,1.647ZM26.111,49.993c0,.8-.651,1.451-1.452,1.451h-9.319c-.8,0-1.452-.651-1.452-1.451v-3.66h12.223v3.66ZM51,43h-22.842c.224-2.873,1.509-5.623,3.623-7.651,3.366-3.232,5.219-7.579,5.219-12.237,0-3.666-1.195-7.207-3.344-10.111h21.759c.874,0,1.584.711,1.584,1.584v28.416h-6Z"/>
  <path d="M52,36h-16c-.552,0-1,.447-1,1s.448,1,1,1h16c.552,0,1-.447,1-1s-.448-1-1-1Z"/>
  <path d="M52,31h-9c-.552,0-1,.448-1,1s.448,1,1,1h9c.552,0,1-.448,1-1s-.448-1-1-1Z"/>
  <path d="M52,26h-9c-.552,0-1,.448-1,1s.448,1,1,1h9c.552,0,1-.448,1-1s-.448-1-1-1Z"/>
</svg>