<?xml version="1.0" encoding="UTF-8"?>
<svg id="Layer_2" data-name="Layer 2" xmlns="http://www.w3.org/2000/svg" viewBox="0 0 64 64">
  <path d="M56.381,23.84l-12.381-5.098v-6.086c0-2.016-1.641-3.656-3.657-3.656h-6.343v-1c0-.553-.448-1-1-1h-3.101c-.464-2.279-2.485-4-4.899-4s-4.435,1.721-4.899,4h-3.101c-.552,0-1,.447-1,1v1h-6.343c-2.016,0-3.657,1.641-3.657,3.656v44.688c0,2.016,1.641,3.656,3.657,3.656h30.687c2.016,0,3.657-1.641,3.657-3.656v-6.742l6.523-3.454c3.995-2.115,6.477-6.237,6.477-10.757v-11.627c0-.405-.245-.771-.619-.925ZM18,9h3c.552,0,1-.447,1-1,0-1.654,1.346-3,3-3s3,1.346,3,3c0,.553.448,1,1,1h3v2h-14v-2ZM40.343,59H9.657c-.914,0-1.657-.743-1.657-1.656V12.656c0-.913.743-1.656,1.657-1.656h6.343v1c0,.553.448,1,1,1h16c.552,0,1-.447,1-1v-1h6.343c.914,0,1.657.743,1.657,1.656v6.121l-12.426,5.847c-.351.165-.574.518-.574.905v10.862c0,4.52,2.481,8.642,6.477,10.757l6.523,3.454v6.742c0,.913-.743,1.656-1.657,1.656ZM55,36.392c0,3.777-2.074,7.222-5.412,8.989l-6.588,3.487-6.588-3.487c-3.338-1.768-5.412-5.212-5.412-8.989v-10.228l12.027-5.659,11.973,4.93v10.957Z"/>
  <path d="M42.574,22.801l-9.35,4.399c-.351.165-.574.518-.574.905v7.812c0,3.355,1.842,6.415,4.808,7.985l5.075,2.687c.146.077.307.116.468.116s.322-.039.468-.116l5.075-2.687c2.965-1.57,4.808-4.63,4.808-7.985v-8.362c0-.405-.245-.771-.619-.925l-9.35-3.85c-.259-.105-.552-.1-.807.02ZM51.35,28.226v7.692c0,2.613-1.435,4.995-3.743,6.218l-4.607,2.438-4.607-2.438c-2.309-1.223-3.743-3.604-3.743-6.218v-7.178l8.377-3.941,8.323,3.427Z"/>
  <path d="M25,19h-12c-.552,0-1,.447-1,1s.448,1,1,1h12c.552,0,1-.447,1-1s-.448-1-1-1Z"/>
  <path d="M25,25h-12c-.552,0-1,.447-1,1s.448,1,1,1h12c.552,0,1-.447,1-1s-.448-1-1-1Z"/>
  <path d="M25,31h-12c-.552,0-1,.447-1,1s.448,1,1,1h12c.552,0,1-.447,1-1s-.448-1-1-1Z"/>
  <path d="M25,37h-12c-.552,0-1,.447-1,1s.448,1,1,1h12c.552,0,1-.447,1-1s-.448-1-1-1Z"/>
  <path d="M25,43h-12c-.552,0-1,.447-1,1s.448,1,1,1h12c.552,0,1-.447,1-1s-.448-1-1-1Z"/>
  <path d="M25,49h-12c-.552,0-1,.447-1,1s.448,1,1,1h12c.552,0,1-.447,1-1s-.448-1-1-1Z"/>
  <path d="M40.959,38.374c.188.188.442.293.707.293s.52-.105.707-.293l5.333-5.334c.391-.391.391-1.023,0-1.414s-1.023-.391-1.414,0l-4.626,4.627-1.959-1.96c-.391-.391-1.023-.391-1.414,0s-.391,1.023,0,1.414l2.667,2.667Z"/>
</svg>