<?xml version="1.0" encoding="UTF-8"?>
<svg id="Layer_2" data-name="Layer 2" xmlns="http://www.w3.org/2000/svg" viewBox="0 0 64 64">
  <path d="M16,44c-.552,0-1,.447-1,1v15c0,.553.448,1,1,1s1-.447,1-1v-15c0-.553-.448-1-1-1Z"/>
  <path d="M60,7H22.902c-1.422-2.476-4.001-4-6.902-4-4.411,0-8,3.589-8,8,0,4.072,3.06,7.436,7,7.931v2.069h-4.411c-4.185,0-7.589,3.405-7.589,7.59v7.833c0,2.523,2.054,4.577,4.578,4.577h.422v19c0,.553.448,1,1,1s1-.447,1-1v-19h4.5c1.93,0,3.5-1.57,3.5-3.5s-1.57-3.5-3.5-3.5h-4.5v-5c0-.553-.448-1-1-1s-1,.447-1,1v6c0,.553.448,1,1,1h5.5c.827,0,1.5.673,1.5,1.5s-.673,1.5-1.5,1.5h-6.922c-1.421,0-2.578-1.156-2.578-2.577v-7.833c0-3.082,2.507-5.59,5.589-5.59h10.821c3.082,0,5.589,2.508,5.589,5.59v11.016c0,.769-.625,1.395-1.395,1.395h-1.605v-12c0-.553-.448-1-1-1s-1,.447-1,1v31c0,.553.448,1,1,1s1-.447,1-1v-17h1.605c1.737,0,3.156-1.316,3.355-3h7.04v6.184c-1.161.414-2,1.514-2,2.816,0,1.654,1.346,3,3,3s3-1.346,3-3c0-1.302-.839-2.402-2-2.816v-6.184h17.69c1.825,0,3.31-1.484,3.31-3.31V9h1c.552,0,1-.447,1-1s-.448-1-1-1ZM37,50c-.551,0-1-.448-1-1s.449-1,1-1,1,.448,1,1-.449,1-1,1ZM10,11c0-3.309,2.691-6,6-6,2.342,0,4.417,1.313,5.419,3.436.385.797.581,1.659.581,2.564,0,3.309-2.691,6-6,6s-6-2.691-6-6ZM57,36.69c0,.722-.588,1.31-1.31,1.31h-26.69v-9.41c0-4.185-3.405-7.59-7.589-7.59h-4.411v-2.069c3.94-.495,7-3.859,7-7.931,0-.687-.094-1.354-.262-2h33.262v27.69Z"/>
  <path d="M48,17c-.552,0-1,.447-1,1v16c0,.553.448,1,1,1h4c.552,0,1-.447,1-1v-16c0-.553-.448-1-1-1h-4ZM51,33h-2v-14h2v14Z"/>
  <path d="M45,21h-4c-.552,0-1,.447-1,1v12c0,.553.448,1,1,1h4c.552,0,1-.447,1-1v-12c0-.553-.448-1-1-1ZM44,33h-2v-10h2v10Z"/>
  <path d="M38,25h-4c-.552,0-1,.447-1,1v8c0,.553.448,1,1,1h4c.552,0,1-.447,1-1v-8c0-.553-.448-1-1-1ZM37,33h-2v-6h2v6Z"/>
  <path d="M34,14h14c.552,0,1-.447,1-1s-.448-1-1-1h-14c-.552,0-1,.447-1,1s.448,1,1,1Z"/>
  <path d="M34,18h6.533c.552,0,1-.447,1-1s-.448-1-1-1h-6.533c-.552,0-1,.447-1,1s.448,1,1,1Z"/>
</svg>