<?xml version="1.0" encoding="UTF-8"?>
<svg id="Layer_2" data-name="Layer 2" xmlns="http://www.w3.org/2000/svg" viewBox="0 0 64 64">
  <path d="M44.669,7.839c-4.079-3.651-9.35-5.324-14.837-4.719-8.708.966-15.735,7.988-16.71,16.696-.665,5.949,1.413,11.726,5.701,15.851,2.654,2.553,4.177,6.093,4.177,9.714v6.861c0,1.87,1.377,3.413,3.168,3.698l.491,2.454c.303,1.51,1.639,2.605,3.178,2.605h4.326c1.539,0,2.875-1.096,3.178-2.605l.491-2.454c1.791-.285,3.168-1.828,3.168-3.698v-6.861c0-3.624,1.519-7.161,4.166-9.704,3.762-3.613,5.834-8.47,5.834-13.677,0-5.397-2.308-10.558-6.331-14.161ZM35.38,58.002c-.116.578-.628.998-1.217.998h-4.326c-.589,0-1.101-.42-1.217-.998l-.4-2.002h7.561l-.4,2.002ZM39,52.242c0,.97-.788,1.758-1.758,1.758h-10.484c-.97,0-1.758-.788-1.758-1.758v-4.242h14v4.242ZM43.781,34.233c-3.039,2.919-4.781,6.981-4.781,11.147v.619h-14v-.619c0-4.162-1.746-8.229-4.79-11.155-3.837-3.69-5.696-8.862-5.1-14.187.871-7.788,7.155-14.067,14.942-14.93,4.91-.547,9.632.953,13.282,4.221,3.6,3.223,5.665,7.841,5.665,12.67,0,4.657-1.854,9.002-5.219,12.233Z"/>
  <path d="M42.958,23.708l-1.024-.592c.045-.379.066-.749.066-1.116s-.021-.737-.066-1.116l1.025-.592c1.267-.731,1.703-2.358.973-3.626l-1.346-2.33c-.732-1.268-2.36-1.704-3.627-.972l-1.027.593c-.599-.442-1.245-.814-1.932-1.114v-1.188c0-1.464-1.19-2.655-2.654-2.655h-2.691c-1.464,0-2.654,1.191-2.654,2.655v1.188c-.687.299-1.333.671-1.932,1.114l-1.028-.594c-1.268-.732-2.895-.294-3.626.972l-1.346,2.331c-.73,1.268-.294,2.894.973,3.625l1.025.593c-.045.379-.066.749-.066,1.116s.021.737.066,1.116l-1.024.592c-1.269.73-1.705,2.357-.974,3.626l1.346,2.33c.731,1.268,2.359,1.702,3.627.972l1.027-.593c.599.442,1.245.814,1.932,1.114v1.188c0,1.463,1.19,2.655,2.654,2.655h2.691c1.464,0,2.654-1.191,2.654-2.655v-1.188c.687-.299,1.333-.671,1.932-1.114l1.027.593c1.267.73,2.895.296,3.627-.972l1.346-2.331c.731-1.269.295-2.895-.974-3.625ZM42.199,26.335l-1.346,2.33c-.181.312-.582.422-.895.239l-2.229-1.287-.538.46c-.743.636-1.593,1.126-2.526,1.457l-.666.236v2.575c0,.361-.294.655-.654.655h-2.691c-.36,0-.654-.294-.654-.655v-2.575l-.666-.236c-.934-.33-1.783-.82-2.526-1.457l-.538-.46-2.229,1.287c-.313.182-.715.072-.895-.239l-1.346-2.329c-.181-.313-.073-.715.24-.896l2.226-1.286-.127-.693c-.094-.514-.14-.992-.14-1.461s.046-.947.14-1.461l.127-.693-2.226-1.286c-.312-.18-.42-.582-.24-.894l1.346-2.33c.181-.314.583-.42.895-.24l2.229,1.288.538-.46c.743-.636,1.593-1.126,2.526-1.457l.666-.236v-2.575c0-.361.294-.655.654-.655h2.691c.36,0,.654.294.654.655v2.575l.666.236c.934.33,1.783.82,2.526,1.457l.538.46,2.228-1.287c.313-.18.715-.073.896.24l1.346,2.329c.18.313.072.715-.24.896l-2.226,1.286.127.693c.094.514.14.992.14,1.461s-.046.947-.14,1.461l-.127.693,2.226,1.286h0c.312.181.42.582.239.895Z"/>
  <path d="M32,17c-2.757,0-5,2.243-5,5s2.243,5,5,5,5-2.243,5-5-2.243-5-5-5ZM32,25c-1.654,0-3-1.346-3-3s1.346-3,3-3,3,1.346,3,3-1.346,3-3,3Z"/>
</svg>