<?xml version="1.0" encoding="UTF-8"?>
<svg id="Layer_2" data-name="Layer 2" xmlns="http://www.w3.org/2000/svg" viewBox="0 0 64 64">
  <path d="M55.387,7h-11.387v-1.432c0-.688-.35-1.314-.934-1.676-.584-.359-1.3-.392-1.916-.086l-3.173,1.587c-.117-1.337-1.229-2.393-2.596-2.393h-12.761c-1.444,0-2.62,1.175-2.62,2.619v1.381h-11.386c-1.993,0-3.614,1.621-3.614,3.613v35.553c0,1.993,1.621,3.614,3.614,3.614h17.188l-1.636,9h-4.165c-.552,0-1,.447-1,1s.448,1,1,1h24c.553,0,1-.447,1-1s-.447-1-1-1h-4.166l-1.636-9h17.189c1.992,0,3.613-1.621,3.613-3.614V10.613c0-1.992-1.621-3.613-3.613-3.613ZM55.387,9c.89,0,1.613.724,1.613,1.613v31.167h-3v-4.649c0-2.277-1.854-4.131-4.131-4.131h-9.738c-2.277,0-4.131,1.854-4.131,4.131v4.649h-3v-24.78h2.381c1.444,0,2.619-1.175,2.619-2.619v-.513l2.938,1.959c.33.22.711.331,1.093.331.317,0,.637-.077.929-.233.642-.343,1.04-1.009,1.04-1.736v-5.188h11.387ZM52,41.78h-14v-4.649c0-1.175.956-2.131,2.131-2.131h9.738c1.175,0,2.131.956,2.131,2.131v4.649ZM42,5.568l.013,2.366c-.002.023-.013.042-.013.065,0,.024.012.045.014.069l.034,6.094-4.048-2.698v-3.853l4-2.044ZM22,5.619c0-.342.278-.619.62-.619h12.761c.342,0,.619.277.619.619v8.762c0,.342-.277.619-.619.619h-12.761c-.342,0-.62-.277-.62-.619V5.619ZM7,10.613c0-.89.724-1.613,1.614-1.613h11.386v5.381c0,1.444,1.175,2.619,2.62,2.619h8.38v24.78h-3v-4.649c0-2.277-1.853-4.131-4.131-4.131h-9.738c-2.278,0-4.131,1.854-4.131,4.131v4.649h-3V10.613ZM26,41.78h-14v-4.649c0-1.175.956-2.131,2.131-2.131h9.738c1.175,0,2.131.956,2.131,2.131v4.649ZM37.802,58.78h-11.604l1.636-9h8.331l1.637,9ZM57,46.166c0,.89-.724,1.614-1.613,1.614H8.614c-.89,0-1.614-.725-1.614-1.614v-2.386h50v2.386Z"/>
  <path d="M39,25c0,3.309,2.691,6,6,6s6-2.691,6-6-2.691-6-6-6-6,2.691-6,6ZM45,21c2.206,0,4,1.794,4,4s-1.794,4-4,4-4-1.794-4-4,1.794-4,4-4Z"/>
  <path d="M19,31c3.309,0,6-2.691,6-6s-2.691-6-6-6-6,2.691-6,6,2.691,6,6,6ZM19,21c2.206,0,4,1.794,4,4s-1.794,4-4,4-4-1.794-4-4,1.794-4,4-4Z"/>
</svg>