<?xml version="1.0" encoding="UTF-8"?>
<svg id="Layer_2" data-name="Layer 2" xmlns="http://www.w3.org/2000/svg" viewBox="0 0 64 64">
  <path d="M15.532,35.472c.146.077.307.116.468.116s.321-.039.468-.116l7.056-3.735c3.995-2.114,6.477-6.236,6.477-10.757v-11.627c0-.405-.244-.771-.619-.925l-13-5.353c-.261-.106-.553-.099-.807.02L2.574,9.212c-.351.165-.574.518-.574.905v10.862c0,4.521,2.481,8.643,6.477,10.757l7.056,3.735ZM4,20.979v-10.228l12.027-5.659,11.973,4.93v10.957c0,3.778-2.074,7.223-5.412,8.989l-6.588,3.487-6.588-3.487c-3.338-1.767-5.412-5.211-5.412-8.989Z"/>
  <path d="M15.532,31.178c.146.077.307.116.468.116s.321-.039.468-.116l5.074-2.687c2.966-1.569,4.808-4.629,4.808-7.984v-8.362c0-.405-.244-.771-.619-.925l-9.35-3.851c-.261-.106-.553-.1-.807.02l-9.35,4.4c-.351.165-.574.518-.574.905v7.812c0,3.355,1.842,6.415,4.808,7.984l5.074,2.687ZM7.65,20.507v-7.178l8.377-3.942,8.322,3.428v7.692c0,2.612-1.435,4.994-3.743,6.217l-4.606,2.438-4.606-2.438c-2.309-1.223-3.743-3.604-3.743-6.217Z"/>
  <path d="M16,21.588c.553,0,1-.447,1-1v-7c0-.553-.447-1-1-1s-1,.447-1,1v7c0,.553.447,1,1,1Z"/>
  <circle cx="16" cy="23.588" r="1"/>
  <path d="M60,59h-2V17.455c0-1.354-1.102-2.455-2.455-2.455h-5.09c-1.354,0-2.455,1.102-2.455,2.455v41.545h-2v-31.545c0-1.354-1.102-2.455-2.455-2.455h-5.09c-1.354,0-2.455,1.102-2.455,2.455v31.545h-2v-21.545c0-1.354-1.102-2.455-2.455-2.455h-5.09c-1.354,0-2.455,1.102-2.455,2.455v21.545h-3v-11.545c0-1.354-1.102-2.455-2.455-2.455h-5.09c-1.354,0-2.455,1.102-2.455,2.455v11.545h-2c-.553,0-1,.447-1,1s.447,1,1,1h51c.553,0,1-.447,1-1s-.447-1-1-1ZM13,59v-11.545c0-.251.204-.455.455-.455h5.09c.251,0,.455.204.455.455v11.545h-6ZM26,59v-21.545c0-.251.204-.455.455-.455h5.09c.251,0,.455.204.455.455v21.545h-6ZM38,59v-31.545c0-.251.204-.455.455-.455h5.09c.251,0,.455.204.455.455v31.545h-6ZM50,59V17.455c0-.251.204-.455.455-.455h5.09c.251,0,.455.204.455.455v41.545h-6Z"/>
</svg>