<?xml version="1.0" encoding="UTF-8"?>
<svg id="Layer_2" data-name="Layer 2" xmlns="http://www.w3.org/2000/svg" viewBox="0 0 64 64">
  <path d="M59.599,23.315c-.657-.836-1.645-1.315-2.708-1.315h-6.891v-5.244c0-2.071-1.685-3.756-3.756-3.756h-22.626l-2.724-5.447c-.169-.339-.516-.553-.895-.553H6.756c-2.071,0-3.756,1.685-3.756,3.756v42.314c0,2.167,1.763,3.93,3.93,3.93h42.766c1.82,0,3.391-1.235,3.819-3.004l6.725-27.739c.251-1.033.018-2.105-.641-2.941ZM5.226,53.975c-.144-.27-.226-.577-.226-.904V10.756c0-.968.788-1.756,1.756-1.756h12.625l2.724,5.447c.169.339.516.553.895.553h23.244c.968,0,1.756.788,1.756,1.756v5.244H15.909c-1.584,0-2.958,1.073-3.342,2.61l-7.341,29.365ZM58.296,25.786l-6.725,27.739c-.211.868-.982,1.475-1.876,1.475H7.031l7.477-29.905c.161-.645.737-1.095,1.402-1.095h40.981c.446,0,.86.201,1.137.552.275.351.373.801.269,1.234Z"/>
  <path d="M33,31c-4.962,0-9,4.037-9,9s4.038,9,9,9,9-4.037,9-9-4.037-9-9-9ZM33,47c-3.86,0-7-3.141-7-7s3.14-7,7-7,7,3.141,7,7-3.141,7-7,7Z"/>
  <path d="M35.293,37.293l-3.293,3.293-1.293-1.293c-.391-.391-1.023-.391-1.414,0s-.391,1.023,0,1.414l2,2c.195.195.451.293.707.293s.512-.098.707-.293l4-4c.391-.391.391-1.023,0-1.414s-1.023-.391-1.414,0Z"/>
</svg>