<?xml version="1.0" encoding="UTF-8"?>
<svg id="Layer_2" data-name="Layer 2" xmlns="http://www.w3.org/2000/svg" viewBox="0 0 64 64">
  <path d="M55.387,5.22H8.613c-1.992,0-3.613,1.621-3.613,3.613v35.553c0,1.992,1.621,3.613,3.613,3.613h17.189l-1.636,9h-4.166c-.553,0-1,.447-1,1s.447,1,1,1h24c.553,0,1-.447,1-1s-.447-1-1-1h-4.166l-1.636-9h17.189c1.992,0,3.613-1.621,3.613-3.613V8.833c0-1.992-1.621-3.613-3.613-3.613ZM7,8.833c0-.89.724-1.613,1.613-1.613h46.773c.89,0,1.613.724,1.613,1.613v31.167h-13.091v-6.646c0-3.854-3.136-6.991-6.99-6.991h-9.838c-3.854,0-6.99,3.136-6.99,6.991v6.646H7V8.833ZM39.363,40v-6.272c0-.553-.447-1-1-1s-1,.447-1,1v6.272h-10.727v-6.272c0-.553-.447-1-1-1s-1,.447-1,1v6.272h-2.546v-6.646c0-2.752,2.238-4.991,4.99-4.991h9.838c2.752,0,4.99,2.239,4.99,4.991v6.646h-2.546ZM37.802,57h-11.604l1.637-9h8.33l1.637,9ZM57,44.387c0,.89-.724,1.613-1.613,1.613H8.613c-.89,0-1.613-.724-1.613-1.613v-2.387h50v2.387Z"/>
  <path d="M32,24.727c4.061,0,7.363-3.303,7.363-7.363s-3.303-7.364-7.363-7.364-7.363,3.303-7.363,7.364,3.303,7.363,7.363,7.363ZM32,12c2.957,0,5.363,2.406,5.363,5.364s-2.406,5.363-5.363,5.363-5.363-2.406-5.363-5.363,2.406-5.364,5.363-5.364Z"/>
</svg>