<?xml version="1.0" encoding="UTF-8"?>
<svg id="Layer_2" data-name="Layer 2" xmlns="http://www.w3.org/2000/svg" viewBox="0 0 64 64">
  <path d="M60,3H4c-.553,0-1,.447-1,1s.447,1,1,1h2v33.791c0,2.321,1.888,4.209,4.209,4.209h20.791v7.586l-8.707,8.707c-.391.391-.391,1.023,0,1.414s1.023.391,1.414,0l8.293-8.293,8.293,8.293c.195.195.451.293.707.293s.512-.098.707-.293c.391-.391.391-1.023,0-1.414l-8.707-8.707v-7.586h20.791c2.321,0,4.209-1.888,4.209-4.209V5h2c.553,0,1-.447,1-1s-.447-1-1-1ZM56,38.791c0,1.218-.991,2.209-2.209,2.209H10.209c-1.218,0-2.209-.991-2.209-2.209V5h48v33.791Z"/>
  <path d="M16.293,35.707c.195.195.451.293.707.293s.512-.098.707-.293l3-3c.391-.391.391-1.023,0-1.414s-1.023-.391-1.414,0l-1.293,1.293v-7.586h13v7.586l-1.293-1.293c-.391-.391-1.023-.391-1.414,0s-.391,1.023,0,1.414l3,3c.195.195.451.293.707.293s.512-.098.707-.293l3-3c.391-.391.391-1.023,0-1.414s-1.023-.391-1.414,0l-1.293,1.293v-7.586h13v7.586l-1.293-1.293c-.391-.391-1.023-.391-1.414,0s-.391,1.023,0,1.414l3,3c.195.195.451.293.707.293s.512-.098.707-.293l3-3c.391-.391.391-1.023,0-1.414s-1.023-.391-1.414,0l-1.293,1.293v-8.586c0-.553-.447-1-1-1h-14v-6h4c.553,0,1-.447,1-1v-6c0-.553-.447-1-1-1h-10c-.553,0-1,.447-1,1v6c0,.553.447,1,1,1h4v6h-14c-.553,0-1,.447-1,1v8.586l-1.293-1.293c-.391-.391-1.023-.391-1.414,0s-.391,1.023,0,1.414l3,3ZM28,11h8v4h-8v-4Z"/>
</svg>