<?xml version="1.0" encoding="UTF-8"?>
<svg id="Layer_2" data-name="Layer 2" xmlns="http://www.w3.org/2000/svg" viewBox="0 0 64 64">
  <path d="M25,30.728c4.061,0,7.364-3.304,7.364-7.364s-3.303-7.363-7.364-7.363-7.364,3.303-7.364,7.363,3.303,7.364,7.364,7.364ZM25,18c2.958,0,5.364,2.406,5.364,5.363s-2.406,5.364-5.364,5.364-5.364-2.406-5.364-5.364,2.406-5.363,5.364-5.363Z"/>
  <path d="M29.918,32.363h-9.837c-3.854,0-6.991,3.137-6.991,6.991v7.646c0,.553.448,1,1,1s1-.447,1-1v-7.646c0-2.752,2.239-4.991,4.991-4.991h9.837c2.752,0,4.991,2.239,4.991,4.991v7.646c0,.553.448,1,1,1s1-.447,1-1v-7.646c0-3.854-3.136-6.991-6.991-6.991Z"/>
  <path d="M18.636,38.728c-.552,0-1,.447-1,1v7.272c0,.553.448,1,1,1s1-.447,1-1v-7.272c0-.553-.448-1-1-1Z"/>
  <path d="M31.364,38.728c-.552,0-1,.447-1,1v7.272c0,.553.448,1,1,1s1-.447,1-1v-7.272c0-.553-.448-1-1-1Z"/>
  <path d="M21,9h8c.552,0,1-.447,1-1s-.448-1-1-1h-8c-.552,0-1,.447-1,1s.448,1,1,1Z"/>
  <path d="M59.066,11.893c-.585-.361-1.301-.393-1.916-.086l-3.173,1.587c-.117-1.337-1.23-2.393-2.597-2.393h-5.38v-4.026c0-2.191-1.783-3.974-3.974-3.974H7.974c-2.191,0-3.974,1.782-3.974,3.974v50.053c0,2.191,1.783,3.974,3.974,3.974h34.053c2.191,0,3.974-1.782,3.974-3.974V25h5.38c1.444,0,2.62-1.175,2.62-2.619v-.512l2.938,1.959c.331.22.711.331,1.093.331.318,0,.637-.077.929-.233.642-.343,1.041-1.009,1.041-1.736v-8.62c0-.688-.349-1.313-.934-1.676ZM42.026,59H7.974c-1.088,0-1.974-.886-1.974-1.974v-2.026h38v2.026c0,1.088-.885,1.974-1.974,1.974ZM44,53H6V6.974c0-1.088.885-1.974,1.974-1.974h34.053c1.088,0,1.974.886,1.974,1.974v4.026h-5.38c-1.444,0-2.62,1.175-2.62,2.619v8.762c0,1.444,1.175,2.619,2.62,2.619h5.38v28ZM52,22.381c0,.342-.278.619-.62.619h-12.761c-.342,0-.62-.277-.62-.619v-8.762c0-.342.278-.619.62-.619h12.761c.342,0,.62.277.62.619v8.762ZM54,19.465v-3.853l4-2.044.048,8.595-4.048-2.698Z"/>
</svg>