<?xml version="1.0" encoding="UTF-8"?>
<svg id="Layer_2" data-name="Layer 2" xmlns="http://www.w3.org/2000/svg" viewBox="0 0 64 64">
  <path d="M39.221,47.751c-.138-.536-.688-.854-1.218-.719-.535.137-.857.683-.72,1.217,1.022,3.975,4.607,6.751,8.717,6.751s7.694-2.776,8.717-6.751c.138-.535-.185-1.08-.72-1.217-.528-.136-1.08.184-1.218.719-.795,3.09-3.583,5.249-6.779,5.249s-5.984-2.159-6.779-5.249Z"/>
  <path d="M42,44c.553,0,1-.448,1-1v-3c0-.552-.447-1-1-1s-1,.448-1,1v3c0,.552.447,1,1,1Z"/>
  <path d="M50,44c.553,0,1-.448,1-1v-3c0-.552-.447-1-1-1s-1,.448-1,1v3c0,.552.447,1,1,1Z"/>
  <path d="M59.445,32.832c.167.112.36.168.555.168.162,0,.324-.039.472-.118.325-.174.528-.513.528-.882V6.706c0-2.043-1.662-3.706-3.706-3.706h-31.588c-2.043,0-3.706,1.662-3.706,3.706v11.294H6.706c-2.043,0-3.706,1.662-3.706,3.706v38.294c0,.394.231.751.59.912.131.059.271.088.41.088.24,0,.478-.086.665-.252l8.716-7.748h19.363c2.52,4.752,7.513,8,13.256,8,8.271,0,15-6.729,15-15,0-5.743-3.248-10.737-8-13.256v-4.208l6.445,4.297ZM24,6.706c0-.94.765-1.706,1.706-1.706h31.588c.94,0,1.706.765,1.706,1.706v23.426l-7.445-4.963c-.164-.109-.357-.168-.555-.168h-25.294c-.94,0-1.706-.765-1.706-1.706V6.706ZM59,46c0,7.168-5.832,13-13,13s-13-5.832-13-13,5.832-13,13-13,13,5.832,13,13ZM51,31.875c-1.567-.556-3.245-.875-5-.875-8.271,0-15,6.729-15,15,0,1.755.319,3.433.875,5H13c-.245,0-.481.09-.665.252l-7.335,6.521V21.706c0-.94.765-1.706,1.706-1.706h15.294v3.294c0,2.043,1.662,3.706,3.706,3.706h24.992l.303.202v4.673Z"/>
  <path d="M32,30H11c-.552,0-1,.448-1,1s.448,1,1,1h21c.552,0,1-.448,1-1s-.448-1-1-1Z"/>
  <path d="M26,35h-15c-.552,0-1,.448-1,1s.448,1,1,1h15c.552,0,1-.448,1-1s-.448-1-1-1Z"/>
  <path d="M26,40h-15c-.552,0-1,.448-1,1s.448,1,1,1h15c.552,0,1-.448,1-1s-.448-1-1-1Z"/>
  <path d="M29,11h25c.553,0,1-.448,1-1s-.447-1-1-1h-25c-.552,0-1,.448-1,1s.448,1,1,1Z"/>
  <path d="M29,16h25c.553,0,1-.448,1-1s-.447-1-1-1h-25c-.552,0-1,.448-1,1s.448,1,1,1Z"/>
  <path d="M54,19h-13c-.553,0-1,.448-1,1s.447,1,1,1h13c.553,0,1-.448,1-1s-.447-1-1-1Z"/>
</svg>