<?xml version="1.0" encoding="UTF-8"?>
<svg id="Layer_2" data-name="Layer 2" xmlns="http://www.w3.org/2000/svg" viewBox="0 0 64 64">
  <path d="M55.386,5.22H8.614c-1.993,0-3.614,1.621-3.614,3.613v35.553c0,1.993,1.621,3.614,3.614,3.614h17.188l-1.636,9h-4.165c-.552,0-1,.448-1,1s.448,1,1,1h24c.552,0,1-.448,1-1s-.448-1-1-1h-4.165l-1.636-9h17.188c1.993,0,3.614-1.621,3.614-3.614V8.833c0-1.992-1.621-3.613-3.614-3.613ZM7,8.833c0-.89.724-1.613,1.614-1.613h46.772c.89,0,1.614.724,1.614,1.613v31.167H7V8.833ZM37.802,57h-11.604l1.636-9h8.331l1.636,9ZM57,44.386c0,.89-.724,1.614-1.614,1.614H8.614c-.89,0-1.614-.724-1.614-1.614v-2.386h50v2.386Z"/>
  <path d="M52,19h-4c-.552,0-1,.448-1,1v16c0,.552.448,1,1,1h4c.552,0,1-.448,1-1v-16c0-.552-.448-1-1-1ZM51,35h-2v-14h2v14Z"/>
  <path d="M45,23h-4c-.552,0-1,.448-1,1v12c0,.552.448,1,1,1h4c.552,0,1-.448,1-1v-12c0-.552-.448-1-1-1ZM44,35h-2v-10h2v10Z"/>
  <path d="M38,27h-4c-.552,0-1,.448-1,1v8c0,.552.448,1,1,1h4c.552,0,1-.448,1-1v-8c0-.552-.448-1-1-1ZM37,35h-2v-6h2v6Z"/>
  <path d="M27,31h-15c-.552,0-1,.448-1,1s.448,1,1,1h15c.552,0,1-.448,1-1s-.448-1-1-1Z"/>
  <path d="M19,34h-7c-.552,0-1,.448-1,1s.448,1,1,1h7c.552,0,1-.448,1-1s-.448-1-1-1Z"/>
  <path d="M20,11c-4.962,0-9,4.038-9,9s4.038,9,9,9,9-4.038,9-9-4.038-9-9-9ZM13,20c0-3.519,2.613-6.432,6-6.92v7.334l5.184,5.184c-1.169.876-2.615,1.402-4.184,1.402-3.86,0-7-3.14-7-7ZM25.598,24.184l-4.598-4.598v-6.506c3.387.488,6,3.401,6,6.92,0,1.57-.526,3.015-1.402,4.184Z"/>
  <path d="M34.001,23c.166,0,.334-.041.489-.128l15.119-8.504-.146.913c-.087.545.284,1.058.83,1.145.053.009.106.013.159.013.483,0,.908-.35.986-.842l.549-3.438c.087-.545-.284-1.058-.83-1.145l-3.438-.549c-.539-.089-1.058.284-1.145.83-.087.545.284,1.058.83,1.145l1.211.194-15.106,8.497c-.481.271-.652.88-.381,1.362.184.326.523.51.873.51Z"/>
</svg>